<svg xmlns="http://www.w3.org/2000/svg" viewBox="0 0 376.58 189.84"><defs><style>.a{fill:#fff;}</style></defs><path class="a" d="M209.08,46.74H235l41.83,86.12-1.86,2V46.74h20.26V159.07H269.15L227.48,74.26l1.86-2v86.82H209.08Z" transform="translate(-11.71 -10.08)"/><path class="a" d="M386.74,65.75l-46.23,73h47.78v20.41h-73v-19l46.23-73H316.7V46.74h70Z" transform="translate(-11.71 -10.08)"/><path class="a" d="M11.71,186.18c1.28-1.41,2.65-2.77,3.82-4.28a11.53,11.53,0,0,0,1.18-2.64L22,180l.57-.75c-3.07-2.33-1.8-4.09.28-5.76,5.06-4.08,10.1-8.19,15.2-12.21A4.8,4.8,0,0,1,41,160c3.43.33,6-1.42,8.69-3,7.49-4.35,15.15-8.41,22.65-12.74a18,18,0,0,0,8.7-11.1c.86-3.19,2-5.63,5.73-6.65,2.74-.74,6.24-4.76,5.33-8.46-.62-2.52.66-4.33,2.61-5.74a17.93,17.93,0,0,1,8.82-2.76l-2.26,2,4.19,2.47.31-.5c.1.19.29.38.29.58.3,6.61.25,6.49,6.36,3.77,1.24-.55,3,.19,5.3.39,1.92-.82,4.43-4.42,7.36,0-1.25,1.58-3.08,3.06-3.68,4.94-.34,1.06,1.35,2.77,2.41,4.68-1.25,1.41-3,3.27-4.62,5.22-2.86,3.42-5.54,7-8.52,10.29-1.3,1.43-3.15,2.37-4.77,3.5-1.08.75-2.47,1.21-3.27,2.18-1.8,2.18-1,4.37,1.6,5.34a7.55,7.55,0,0,1,2.15.92c.44.34.92,1.19.78,1.61-.22.61-.92,1.41-1.49,1.47a6.92,6.92,0,0,1-3.38-.4c-2.14-.9-3.71-1.81-6.19.22s-5.84,2.73-8.94,3.61c-5.16,1.48-7,5-7.29,10-.08,1.48-1,3-1.83,4.34-1.56,2.71-3.37,5.28-4.87,8-.4.72-.06,1.85.53,2.85-.1.19-.19.53-.31.54-4.24.36-6.5,3.83-9.67,5.86-4.15,2.66-9,4.21-13.55,6.24h-2.7c-1.05-1.77-2.49-2.19-4.53-1.79-1.7.33-3.51.07-6,.07l2.74-2.57c-2.33-.2-4.07-.23-5.76-.51-1.33-.22-3-.36-3.81-1.21-1.52-1.55-2.81-1.45-4.78-1.08-3.84.73-8,2.12-11.09-2.11-.44-.59-1.65-.62-2.5-.92Z" transform="translate(-11.71 -10.08)"/><path class="a" d="M178.17,56.38c-1,4.19-1.76,8.05-2.83,11.83a3.89,3.89,0,0,1-2.24,2.11c-2.77,1-3.39,2.84-3,5.53.15,1.12-.38,2.33-.73,4.21-2.77-4.2-6.11-3-9-2.27a6,6,0,0,0-4.93,6.79l2.46.64c0,.34.17.59.09.75-4,8.29-10.53,14.63-16.24,21.59-1.92,2.34-4.76,4-7.42,5.59-1.49.88-3.17,1.48-4.7-1.07-.83-1.4-3.78-1.53-5.78-2.24-.6-.21-1.2-.46-2.37-.91,1.52-1.72,2.82-3.15,4.08-4.62a33.22,33.22,0,0,0,3.4-4.14c3.29-5.48.82-10.26-5.35-12a66.42,66.42,0,0,1-12.36-5.5c-2.21-1.17-2-3.81.1-5.26a8.62,8.62,0,0,1,3.69-1.54c5.81-.58,7.47-4.46,8.14-9.46a6.73,6.73,0,0,1,2.24-3.66L125,58.31c-1.32-6.9-5.65-12.58-9-19,4.67.3,2.16-3.73,3.51-5.66h-2.31l-2.6,4.22-9.48-11.14,1.33-2.48c-2.63.92-6.4-1.24-5.78-3.75,1.09-4.45-1.92-6.28-4.28-8.7a3.18,3.18,0,0,1-1-1.74c4,.47,5.73,3.82,8,6.84l1.69-1.24a14.46,14.46,0,0,0,3.15.87c3.63,0,6.47,2,6.92,4.33,2.13,1.15,4.07,1.9,5.6,3.16a3.33,3.33,0,0,1,.41,3.19c-1.49,2.62-.29,4.23,1.51,5.89s3,3.28,1.94,6.15c-.42,1.13.83,3.41,2,4.48s3.34,1.17,4.75,2.14c1.22.85,2,2.34,3,3.55l1-.38c-.73-3.23-1.46-6.47-2.22-9.8.13,0,.69-.21,1,0,3.22,2.27,6.88,4.24,7.17,8.89s2.29,7.74,7,9.06c2.58.73,5,2.06,7.51,3,3.83,1.37,7.1.94,9.9-2.55C168.81,53.61,174.27,53.49,178.17,56.38Z" transform="translate(-11.71 -10.08)"/><path class="a" d="M116.88,187v4.12a10.06,10.06,0,0,1-1,4.63,7.43,7.43,0,0,1-2.9,3.1,8.36,8.36,0,0,1-4.34,1.1,9.05,9.05,0,0,1-4.4-1,7.33,7.33,0,0,1-2.93-2.91,9,9,0,0,1-1-4.37v-7a10,10,0,0,1,1-4.62,7.43,7.43,0,0,1,2.9-3.1,8.43,8.43,0,0,1,4.34-1.09,8.14,8.14,0,0,1,3.74.87,8,8,0,0,1,2.87,2.46,9.27,9.27,0,0,1,1.55,3.68H113.1a5.25,5.25,0,0,0-1-2,4.81,4.81,0,0,0-1.64-1.29,4.49,4.49,0,0,0-2-.45,4.53,4.53,0,0,0-4.27,2.65,6.75,6.75,0,0,0-.6,2.93v7a5.43,5.43,0,0,0,.62,2.67,4.45,4.45,0,0,0,1.74,1.78,5.25,5.25,0,0,0,2.61.63,4.9,4.9,0,0,0,2.56-.66,4.4,4.4,0,0,0,1.71-1.9,6.86,6.86,0,0,0,.6-3v-1H108.7V187Z" transform="translate(-11.71 -10.08)"/><path class="a" d="M121.91,176.06h3.31v23.62h-3.31Zm1.45,10.48h8a3.12,3.12,0,0,0,1.67-.45,3,3,0,0,0,1.13-1.29,4.83,4.83,0,0,0,0-3.85,3,3,0,0,0-1.12-1.29,3.1,3.1,0,0,0-1.68-.45h-8v-3.15h7.92a7.48,7.48,0,0,1,3.6.84,5.94,5.94,0,0,1,2.4,2.39,7.92,7.92,0,0,1,0,7.16,5.93,5.93,0,0,1-2.41,2.4,7.4,7.4,0,0,1-3.58.84h-7.92Zm6.43,2.42,3.29-.74,6,11.46h-3.93Z" transform="translate(-11.71 -10.08)"/><path class="a" d="M149.2,176.07H152l8.7,23.61h-3.57l-6.54-19.05-6.55,19.05H140.5Zm-4.69,15.28h12.42v3.15H144.51Z" transform="translate(-11.71 -10.08)"/><path class="a" d="M164.3,176.07h3.31v23.61H164.3Zm1.71,11.3h7.54a3.55,3.55,0,0,0,1.89-.5,3.38,3.38,0,0,0,1.26-1.43,5.4,5.4,0,0,0,0-4.27,3.41,3.41,0,0,0-1.26-1.44,3.47,3.47,0,0,0-1.89-.51H166v-3.15h7.43a7.48,7.48,0,0,1,3.72.9,6.28,6.28,0,0,1,2.49,2.54,7.9,7.9,0,0,1,.89,3.8,7.8,7.8,0,0,1-.89,3.79,6.25,6.25,0,0,1-2.49,2.53,7.58,7.58,0,0,1-3.72.89H166Z" transform="translate(-11.71 -10.08)"/><path class="a" d="M184.68,176.07H188v23.61h-3.31Zm2.06,10.41h13.1v3.15h-13.1Zm11.34-10.41h3.32v23.61h-3.32Z" transform="translate(-11.71 -10.08)"/><path class="a" d="M207.24,176.07h3.31v23.61h-3.31Zm1.61,0H222.4v3.15H208.85Zm0,10.31h11.77v3.15H208.85Zm0,10.15H222.4v3.15H208.85Z" transform="translate(-11.71 -10.08)"/><path class="a" d="M227.11,176.06h3.31v23.62h-3.31Zm1.45,10.48h8.05a3.09,3.09,0,0,0,1.67-.45,2.91,2.91,0,0,0,1.13-1.29,4.83,4.83,0,0,0,0-3.85,3,3,0,0,0-1.12-1.29,3.1,3.1,0,0,0-1.68-.45h-8.05v-3.15h7.92a7.48,7.48,0,0,1,3.6.84,5.94,5.94,0,0,1,2.4,2.39,7.92,7.92,0,0,1,0,7.16,5.93,5.93,0,0,1-2.41,2.4,7.4,7.4,0,0,1-3.58.84h-7.92ZM235,189l3.29-.74,6,11.46h-3.93Z" transform="translate(-11.71 -10.08)"/><path class="a" d="M274.68,176.07h3.1v23.61h-3.23V182l.16,1L268.9,196.4h-2.3l-5.82-13L261,182v17.68h-3.24V176.07h3.11l6.93,15.59Z" transform="translate(-11.71 -10.08)"/><path class="a" d="M287.08,198.84a7.44,7.44,0,0,1-2.91-3.05,9.71,9.71,0,0,1-1-4.57v-6.69a9.71,9.71,0,0,1,1-4.57,7.38,7.38,0,0,1,2.91-3.05,9.32,9.32,0,0,1,8.71,0A7.38,7.38,0,0,1,298.7,180a9.71,9.71,0,0,1,1,4.57v6.69a9.71,9.71,0,0,1-1,4.57,7.44,7.44,0,0,1-2.91,3.05,9.32,9.32,0,0,1-8.71,0ZM294,196a4.45,4.45,0,0,0,1.72-1.87,6.21,6.21,0,0,0,.61-2.8v-6.91a6.21,6.21,0,0,0-.61-2.8,4.45,4.45,0,0,0-1.72-1.87,5.35,5.35,0,0,0-5.15,0,4.45,4.45,0,0,0-1.72,1.87,6.08,6.08,0,0,0-.61,2.8v6.91a6.08,6.08,0,0,0,.61,2.8,4.45,4.45,0,0,0,1.72,1.87,5.35,5.35,0,0,0,5.15,0Z" transform="translate(-11.71 -10.08)"/><path class="a" d="M304.76,176.07h3.32v23.61h-3.32ZM307,196.53h5.35a5.65,5.65,0,0,0,4-1.36,5,5,0,0,0,1.43-3.82V184.4a5,5,0,0,0-1.43-3.82,5.65,5.65,0,0,0-4-1.36H307v-3.15h5.25a10.9,10.9,0,0,1,4.85,1,6.93,6.93,0,0,1,3.07,2.89,9.34,9.34,0,0,1,1.06,4.58v6.69a9.34,9.34,0,0,1-1.06,4.58,6.9,6.9,0,0,1-3.08,2.89,10.91,10.91,0,0,1-4.86,1H307Z" transform="translate(-11.71 -10.08)"/><path class="a" d="M326.26,176.07h3.31v23.61h-3.31Zm1.6,0h13.56v3.15H327.86Zm0,10.31h11.78v3.15H327.86Zm0,10.15h13.56v3.15H327.86Z" transform="translate(-11.71 -10.08)"/><path class="a" d="M346.13,176.06h3.31v23.62h-3.31Zm1.44,10.48h8.06a3.14,3.14,0,0,0,1.67-.45,3,3,0,0,0,1.13-1.29,4.95,4.95,0,0,0,0-3.85,3,3,0,0,0-1.12-1.29,3.15,3.15,0,0,0-1.68-.45h-8.06v-3.15h7.93a7.41,7.41,0,0,1,3.59.84,5.82,5.82,0,0,1,2.4,2.39,7.88,7.88,0,0,1,0,7.16,6,6,0,0,1-2.41,2.4,7.42,7.42,0,0,1-3.58.84h-7.93ZM354,189l3.3-.74,6,11.46h-3.93Z" transform="translate(-11.71 -10.08)"/><path class="a" d="M367.8,176.07h3l11.54,18.25-.39.42V176.07h3.28v23.59h-3l-11.51-18,.39-.42v18.39H367.8Z" transform="translate(-11.71 -10.08)"/></svg>